<svg width="16" height="16" viewBox="0 0 16 16" fill="none" xmlns="http://www.w3.org/2000/svg">
<path fill-rule="evenodd" clip-rule="evenodd" d="M3.00002 1.75C2.63539 1.75 2.32359 2.01225 2.26111 2.37149L0.261097 13.8715C0.223164 14.0896 0.283534 14.3133 0.426037 14.4828C0.568541 14.6522 0.778618 14.75 1.00001 14.75H10L15 14.75C15.2214 14.75 15.4315 14.6522 15.574 14.4828C15.7165 14.3133 15.7769 14.0896 15.7389 13.8715L13.7389 2.37149C13.6765 2.01225 13.3647 1.75 13 1.75H3.00002ZM1.8917 13.25L3.63084 3.25H12.0293L9.42056 13.25H1.8917ZM10.9708 13.25L12.8533 6.03362L14.1083 13.25L10.9708 13.25ZM8.25 5.50004C8.24999 5.08583 8.58577 4.75004 8.99998 4.75003C9.4142 4.75002 9.74999 5.0858 9.75 5.50001L9.75001 5.99998C9.75003 6.96649 8.96652 7.75001 8.00001 7.75001L6.00001 7.75001C5.03352 7.75001 4.25003 6.96653 4.25001 6.00005L4.25 5.50004C4.24999 5.08583 4.58577 4.75004 4.99998 4.75003C5.4142 4.75002 5.74999 5.0858 5.75 5.50001L5.75001 6.00002C5.75001 6.13809 5.86194 6.25001 6.00001 6.25001L8.00001 6.25001C8.13808 6.25001 8.25001 6.13808 8.25001 6.00001L8.25 5.50004Z" fill="white"/>
</svg>
