<svg width="16" height="16" viewBox="0 0 16 16" fill="none" xmlns="http://www.w3.org/2000/svg">
<path fill-rule="evenodd" clip-rule="evenodd" d="M8.29267 15.2781C10.0854 13.8861 14 10.282 14 6.90598C14 5.33962 13.3679 3.83741 12.2426 2.72982C11.1174 1.62224 9.5913 1 8 1C6.4087 1 4.88258 1.62224 3.75736 2.72982C2.63214 3.83741 2 5.33962 2 6.90598C2 10.282 5.91458 13.8861 7.70733 15.2781C7.88061 15.4127 8.11939 15.4127 8.29267 15.2781ZM8 9C9.10457 9 10 8.10457 10 7C10 5.89543 9.10457 5 8 5C6.89543 5 6 5.89543 6 7C6 8.10457 6.89543 9 8 9Z" fill="#1E1E1E"/>
</svg>
